<mxfile host="app.diagrams.net" modified="2024-05-18T17:43:20.821Z" agent="Mozilla/5.0 (Windows NT 10.0; Win64; x64) AppleWebKit/537.36 (KHTML, like Gecko) Chrome/124.0.0.0 Safari/537.36" version="24.4.4" etag="9MMuEbYvriw_yBPIUNNr" type="github">
  <diagram name="PÃ¡gina-1" id="YPjt8sPNAg8ZxMUqDlAb">
    <mxGraphModel>
      <root>
        <mxCell id="0" />
        <mxCell id="1" parent="0" />
      </root>
    </mxGraphModel>
  </diagram>
</mxfile>
